<?xml version="1.0" standalone="no"?>
<!DOCTYPE svg PUBLIC "-//W3C//DTD SVG 20010904//EN"
 "http://www.w3.org/TR/2001/REC-SVG-20010904/DTD/svg10.dtd">
<svg version="1.0" xmlns="http://www.w3.org/2000/svg"
 width="1000.000000pt" height="311.000000pt" viewBox="0 0 1000.000000 311.000000"
 preserveAspectRatio="xMidYMid meet">
<metadata>
Created by potrace 1.13, written by Peter Selinger 2001-2015
</metadata>
<g transform="translate(0.000000,311.000000) scale(0.100000,-0.100000)"
fill="#000000" stroke="none">
<path d="M0 1555 l0 -1555 1600 0 1600 0 0 1555 0 1555 -1600 0 -1600 0 0
-1555z m3150 405 l0 -1100 -42 0 c-24 1 -126 5 -227 10 -183 8 -186 8 -245
-16 -67 -27 -76 -23 -76 34 0 96 -37 256 -76 334 -25 48 -23 66 8 111 10 12
10 22 2 35 -28 43 -98 18 -126 -45 -13 -29 -25 -43 -38 -43 -25 0 -46 38 -31
53 6 6 11 21 11 34 0 35 -53 32 -91 -6 -23 -23 -29 -38 -29 -72 0 -35 -7 -49
-40 -85 -36 -39 -40 -49 -40 -95 0 -57 4 -55 -80 -33 -39 11 -11 -12 33 -26
51 -16 42 -34 -19 -39 l-49 -5 50 -5 50 -6 0 -54 c0 -40 -4 -57 -17 -65 -14
-8 -20 -7 -31 8 -13 17 -14 17 -48 -1 -45 -26 -53 -74 -15 -99 23 -14 29 -15
49 -2 12 8 32 17 44 20 18 5 23 0 33 -41 6 -25 19 -54 28 -64 9 -10 12 -21 6
-26 -5 -4 -166 -67 -359 -139 -192 -73 -373 -141 -402 -152 l-52 -20 -21 48
c-12 26 -30 68 -41 93 l-20 47 24 25 c38 37 79 124 72 150 -11 39 -38 97 -45
97 -4 0 -28 -16 -54 -35 -43 -34 -46 -39 -47 -83 l-1 -47 -23 50 c-13 28 -24
60 -24 72 -1 12 -14 37 -29 55 -30 35 -61 140 -43 146 27 9 60 45 66 71 9 42
-18 88 -57 99 -23 6 -34 16 -39 36 -4 16 -14 36 -22 45 -8 9 -22 69 -32 136
-9 66 -17 124 -18 129 -1 6 7 12 18 14 30 6 45 22 45 47 0 12 -6 27 -12 33
-16 12 -157 13 -180 1 -11 -6 -24 -5 -36 2 -12 8 -29 9 -48 4 -30 -9 -95 -14
-178 -14 -54 0 -86 -21 -86 -56 0 -28 18 -45 51 -45 25 0 26 -3 32 -67 4 -38
7 -112 7 -167 0 -92 -2 -100 -25 -122 -46 -42 -31 -117 28 -137 14 -5 17 -19
17 -81 0 -98 -10 -118 -71 -139 -66 -24 -97 -70 -105 -158 -6 -68 26 -285 68
-462 19 -76 20 -90 7 -98 -8 -5 -114 -9 -236 -9 l-223 0 0 1510 0 1510 1550 0
1550 0 0 -1100z m-2199 -389 c22 14 66 11 73 -6 7 -18 -19 -45 -45 -45 -23 0
-24 -5 -2 -153 19 -132 15 -154 -31 -149 -33 4 -56 -13 -56 -43 0 -28 -16 -35
-83 -36 -29 0 -74 -4 -102 -8 -63 -9 -95 4 -96 38 -1 14 -4 94 -8 176 l-6 150
-25 0 c-33 0 -50 12 -50 36 0 28 45 47 72 30 17 -11 27 -10 59 5 37 16 40 16
58 0 16 -15 19 -15 31 -1 14 17 61 20 76 5 7 -7 21 -6 45 4 29 12 37 13 55 1
13 -8 26 -10 35 -4z m160 -457 c44 -40 13 -109 -53 -119 -24 -3 -56 -9 -73
-13 -27 -6 -25 -7 20 -12 l50 -5 13 -59 c7 -33 9 -63 5 -67 -4 -4 -47 -17 -95
-28 -91 -23 -253 -29 -313 -13 -30 8 -30 10 -37 93 -6 82 -5 85 20 107 29 25
26 26 -37 6 -23 -7 -61 27 -61 54 0 10 6 27 14 37 12 16 29 19 127 21 63 2
132 5 154 9 35 5 41 3 50 -17 8 -18 18 -23 45 -23 28 0 37 5 48 28 13 27 17
28 59 23 25 -3 54 -13 64 -22z m1924 -269 c17 -2 49 -4 73 -4 l42 -1 0 -400 0
-400 -1302 0 c-716 0 -1299 2 -1297 4 2 3 76 32 164 64 88 33 286 108 440 167
154 58 341 129 415 156 74 28 239 91 367 140 127 49 238 86 247 83 11 -4 16
-19 16 -53 0 -43 -3 -48 -30 -58 -60 -23 -51 -65 19 -92 23 -10 46 -22 49 -28
30 -46 262 -36 262 12 0 10 -14 17 -40 21 -24 4 -45 14 -50 25 -14 25 -12 123
2 137 26 26 45 13 57 -40 19 -85 46 -135 83 -154 28 -15 65 -17 240 -18 180
-1 209 1 224 16 15 15 15 17 -5 27 -11 7 -21 18 -21 26 0 8 -10 21 -22 29 -18
13 -55 16 -190 16 -192 0 -172 -11 -214 113 -25 73 -25 77 5 161 4 11 32 28
66 42 56 22 69 23 215 17 85 -3 169 -7 185 -8z m-2215 -71 c63 4 129 9 146 12
29 6 30 5 26 -29 l-4 -34 -81 -7 c-86 -6 -222 5 -269 23 -20 7 -28 18 -28 35
l0 24 48 -15 c36 -11 75 -13 162 -9z m38 -69 l173 0 5 -25 c27 -120 37 -131
132 -138 l69 -4 38 -89 c21 -49 36 -92 33 -94 -4 -4 -477 -185 -484 -185 -1 0
-7 37 -14 83 -6 45 -14 90 -16 99 -3 10 3 19 16 23 11 3 20 14 20 23 0 35 -32
192 -40 192 -4 0 1 -43 10 -96 l18 -95 -26 -10 c-14 -5 -59 -8 -101 -7 l-76 3
-3 140 c-2 77 0 154 3 172 6 31 6 31 38 20 20 -8 96 -12 205 -12z m-71 -415
c7 -41 14 -87 17 -101 4 -22 0 -27 -30 -38 -20 -7 -37 -11 -39 -9 -3 3 -25
184 -25 207 0 5 8 12 18 14 40 11 47 3 59 -73z"/>
<path d="M848 2899 c-27 -15 -42 -83 -26 -116 18 -38 59 -51 92 -30 77 51 13
192 -66 146z"/>
<path d="M1356 2901 c-3 -5 -3 -44 1 -86 l6 -77 49 4 c53 6 62 11 72 45 5 15
1 28 -13 42 -12 12 -18 27 -15 36 10 25 -15 45 -57 45 -21 0 -40 -4 -43 -9z"/>
<path d="M1862 2828 l3 -83 49 1 c57 1 76 19 76 72 0 48 -46 92 -95 92 l-36 0
3 -82z"/>
<path d="M1215 2415 c-49 -48 -23 -145 38 -145 62 0 90 98 42 145 -13 14 -31
25 -40 25 -9 0 -27 -11 -40 -25z"/>
<path d="M2591 2421 c-46 -46 -32 -133 23 -147 74 -18 111 82 54 144 -26 27
-52 28 -77 3z"/>
<path d="M1086 2181 c-26 -29 -33 -97 -12 -120 45 -49 116 -19 116 48 0 73
-64 117 -104 72z"/>
<path d="M841 1951 c-46 -46 -32 -133 23 -147 76 -19 114 95 49 146 -32 25
-48 25 -72 1z"/>
<path d="M3420 1555 l0 -1555 1600 0 1600 0 0 1555 0 1555 -1600 0 -1600 0 0
-1555z m3150 290 l0 -1215 -22 0 c-13 0 -278 32 -590 70 l-567 70 -88 -35
c-48 -19 -87 -35 -88 -35 -1 0 -2 48 -3 108 -4 170 -41 363 -87 451 -20 40
-21 131 0 131 20 0 38 36 30 61 -4 12 -23 27 -42 35 -31 13 -38 13 -71 -3 -28
-14 -41 -29 -57 -68 -10 -27 -20 -52 -22 -54 -1 -2 -21 -4 -44 -5 -40 -1 -43
1 -51 33 -7 25 -5 37 6 50 21 23 20 67 0 75 -44 17 -110 -5 -138 -46 -11 -15
-16 -45 -16 -90 0 -38 -4 -68 -9 -68 -19 0 -106 -83 -119 -113 -8 -17 -12 -42
-9 -55 6 -32 -11 -92 -26 -92 -7 0 -36 9 -65 20 -36 14 -53 17 -50 8 2 -6 30
-21 61 -32 83 -30 75 -46 -23 -46 -47 0 -80 -4 -80 -10 0 -6 31 -10 73 -10 41
0 76 -2 78 -4 2 -3 0 -49 -5 -102 -16 -163 9 -298 66 -361 14 -15 17 -26 11
-38 -8 -13 -808 -345 -833 -345 -5 0 -100 184 -100 195 0 3 6 5 13 5 37 0 115
103 146 193 l20 57 -30 73 c-47 110 -44 110 -138 42 -45 -32 -81 -65 -81 -74
0 -9 5 -45 10 -79 6 -35 8 -74 4 -85 -12 -36 -104 172 -104 234 0 43 -4 51
-35 76 l-35 28 0 1133 0 1132 1555 0 1555 0 0 -1215z m-682 -1154 c262 -33
523 -65 580 -71 l102 -12 0 -284 0 -284 -1467 0 c-806 0 -1464 2 -1461 5 7 7
971 395 974 392 1 -1 0 -25 -3 -54 -5 -47 -8 -53 -34 -58 -29 -7 -79 -56 -79
-79 0 -6 7 -21 15 -33 15 -22 103 -43 178 -43 20 0 52 -10 73 -22 50 -30 167
-36 254 -14 64 17 90 30 90 48 0 11 -61 38 -95 40 -36 3 -49 43 -40 122 5 53
10 66 27 72 25 7 35 -6 44 -61 9 -57 26 -85 74 -124 41 -33 43 -33 114 -27 81
7 342 66 397 90 52 22 66 42 40 58 -12 7 -21 23 -21 35 0 24 -43 63 -69 63 -9
0 -60 -13 -112 -30 -120 -37 -240 -55 -269 -40 -45 24 -61 109 -31 166 11 21
25 60 31 86 l12 47 87 35 c47 19 92 35 99 36 7 0 227 -27 490 -59z m-2300
-377 l83 -3 45 -91 c24 -50 44 -95 44 -99 0 -4 -44 -24 -97 -44 -68 -26 -114
-37 -150 -37 l-53 0 0 146 0 146 23 -7 c12 -4 59 -9 105 -11z"/>
<path d="M4805 2865 c-49 -48 -23 -145 38 -145 62 0 90 98 42 145 -13 14 -31
25 -40 25 -9 0 -27 -11 -40 -25z"/>
<path d="M5860 2635 c-7 -8 -15 -35 -18 -60 -3 -35 0 -50 13 -65 23 -25 76
-26 98 -2 24 26 22 93 -3 120 -24 25 -72 29 -90 7z"/>
<path d="M4587 2408 c-18 -15 -37 -59 -37 -89 0 -28 44 -69 74 -69 37 0 69 46
62 89 -6 38 -41 81 -66 81 -9 0 -24 -6 -33 -12z"/>
<path d="M5448 2173 c-2 -4 -2 -41 0 -80 l4 -73 52 0 c29 0 57 5 64 12 17 17
15 63 -2 78 -8 6 -16 24 -18 38 -3 24 -7 27 -50 30 -25 2 -48 -1 -50 -5z"/>
<path d="M6840 1555 l0 -1555 1580 0 1580 0 0 1555 0 1555 -1580 0 -1580 0 0
-1555z m3120 380 l0 -1125 -32 0 c-35 0 -243 16 -318 25 -237 26 -260 27 -316
5 -30 -11 -59 -20 -64 -20 -6 0 -10 26 -10 58 0 79 -18 215 -37 282 -27 98
-28 119 -3 145 32 34 23 59 -22 63 -49 4 -76 -12 -94 -54 -12 -28 -20 -34 -44
-34 -27 0 -30 3 -30 30 0 17 5 30 10 30 6 0 10 11 10 25 0 22 -4 25 -34 25
-51 0 -78 -27 -83 -86 -5 -44 -10 -52 -49 -83 -24 -18 -46 -43 -49 -55 -2 -11
-7 -38 -10 -59 -5 -33 -8 -36 -25 -27 -35 19 -70 29 -70 21 0 -4 18 -16 40
-26 22 -10 40 -22 40 -27 0 -4 -22 -8 -50 -8 -27 0 -50 -4 -50 -10 0 -5 22
-10 49 -10 l49 0 -5 -42 c-7 -54 -25 -77 -47 -59 -19 16 -46 7 -46 -14 0 -9
-9 -15 -24 -15 -30 0 -42 -30 -24 -59 18 -29 42 -32 83 -10 19 10 39 19 44 19
4 0 11 -23 14 -52 4 -29 17 -67 31 -89 l25 -37 -27 -11 c-109 -42 -802 -301
-807 -301 -1 0 -21 41 -45 91 l-43 90 23 16 c12 9 36 45 52 80 26 58 28 68 17
101 -6 21 -18 47 -26 60 -14 23 -15 23 -41 6 -15 -9 -40 -28 -55 -43 -24 -22
-27 -31 -22 -63 4 -21 4 -38 1 -38 -9 0 -46 92 -46 117 0 32 -17 63 -34 63
-15 0 -22 19 -32 96 -6 47 -4 53 15 59 28 8 54 60 45 88 -10 33 -45 67 -69 67
-17 0 -25 9 -34 42 -10 31 -10 43 -2 46 6 2 9 8 6 12 -3 5 -12 7 -19 4 -14 -5
-26 50 -41 187 -6 56 -6 57 25 68 28 9 31 14 28 43 -3 33 -3 33 -63 36 -33 1
-73 3 -90 3 -111 -1 -132 -2 -144 -10 -9 -6 -23 -5 -37 1 -16 8 -30 7 -52 -4
-20 -11 -35 -12 -47 -6 -19 11 -71 4 -92 -13 -16 -14 -17 -51 -1 -67 7 -7 26
-12 43 -12 l32 0 7 -164 7 -164 -31 -30 c-44 -45 -36 -117 16 -141 22 -10 24
-17 24 -75 0 -102 -7 -124 -46 -136 -47 -16 -94 -57 -110 -97 -18 -43 -18
-141 2 -244 18 -100 71 -315 84 -346 13 -30 0 -33 -166 -33 l-144 0 0 1510 0
1510 1540 0 1540 0 0 -1125z m-2503 -376 c8 -8 21 -7 47 2 28 10 41 11 55 2
14 -9 27 -9 49 -1 39 15 64 4 60 -24 -2 -17 -11 -24 -32 -26 -27 -3 -28 -6
-23 -40 3 -20 12 -83 19 -140 14 -119 11 -126 -59 -116 -29 4 -43 3 -43 -5 0
-6 5 -11 10 -11 9 0 4 -47 -6 -59 -4 -4 -20 -6 -134 -16 -47 -4 -88 -9 -91
-11 -3 -2 -15 3 -25 11 -17 12 -19 30 -22 177 -4 154 -11 196 -34 182 -17 -11
-58 6 -58 24 0 36 53 56 89 33 8 -5 24 -3 42 8 24 13 32 14 49 3 17 -10 25
-10 48 2 33 18 45 19 59 5z m305 -459 c43 -54 6 -104 -90 -121 -70 -13 -76
-29 -8 -22 l44 5 11 -51 c20 -94 24 -90 -119 -121 -59 -13 -235 -13 -281 0
-43 12 -49 27 -49 118 0 45 4 62 13 62 8 0 22 9 32 20 22 24 18 25 -24 4 -29
-14 -34 -14 -56 0 -19 13 -25 25 -25 54 0 21 5 43 12 50 14 14 54 16 62 3 3
-4 29 -5 58 0 29 4 85 10 124 14 66 5 72 4 77 -14 7 -27 52 -45 78 -31 10 6
22 22 25 36 6 25 10 26 52 21 31 -3 52 -12 64 -27z m1833 -280 c132 -12 267
-24 300 -28 l60 -7 0 -370 0 -370 -1360 -2 c-819 -2 -1354 1 -1345 7 9 5 52
22 95 38 44 16 346 130 670 252 812 306 825 311 833 306 4 -2 5 -26 4 -54 -4
-46 -6 -50 -35 -59 -24 -6 -33 -15 -35 -35 -3 -24 5 -30 93 -73 95 -47 98 -48
170 -42 84 6 122 21 105 42 -6 7 -26 16 -44 19 -45 9 -61 47 -52 118 7 50 18
68 42 68 6 0 18 -26 28 -57 19 -64 65 -164 81 -176 5 -4 105 -6 222 -5 159 2
215 6 225 16 11 11 10 16 -4 26 -10 7 -18 20 -18 28 0 8 -8 22 -18 31 -14 13
-43 15 -167 14 -83 0 -159 2 -171 6 -22 8 -42 46 -70 135 -15 48 -15 59 -3
100 14 42 18 47 74 68 33 13 64 23 70 23 5 1 118 -8 250 -19z m-2258 -52 c43
-10 217 -6 289 8 30 6 31 5 26 -25 -4 -28 -7 -30 -60 -37 -69 -8 -223 2 -283
19 -34 10 -45 18 -47 36 -3 19 0 22 13 17 10 -3 38 -11 62 -18z m74 -67 c53
-6 128 -7 171 -3 90 9 103 3 114 -53 9 -53 30 -92 55 -105 11 -7 46 -12 78
-13 l57 -2 41 -90 c23 -49 40 -91 38 -93 -1 -2 -110 -43 -241 -92 -150 -57
-240 -86 -245 -79 -3 6 -12 49 -19 96 -14 85 -14 85 10 103 l24 18 -23 98
c-12 54 -25 101 -28 104 -6 6 6 -79 22 -148 9 -37 9 -54 2 -59 -6 -4 -49 -9
-96 -11 -113 -6 -111 -10 -111 188 0 86 3 159 6 163 3 3 16 2 29 -3 12 -5 65
-13 116 -19z"/>
<path d="M7143 2754 c-7 -19 12 -34 45 -34 21 0 22 -4 22 -69 0 -46 5 -72 14
-80 25 -21 38 12 35 86 l-4 68 30 0 c23 1 30 5 30 20 0 18 -8 20 -83 23 -69 2
-83 0 -89 -14z"/>
<path d="M7343 2757 c-5 -6 -6 -52 -3 -102 4 -71 8 -90 20 -90 10 0 16 12 18
38 3 35 5 37 37 37 31 0 35 -3 41 -35 7 -39 20 -53 36 -37 16 16 -13 197 -32
197 -11 0 -15 -11 -15 -40 0 -38 -2 -40 -32 -43 -31 -3 -33 -1 -39 38 -7 44
-17 56 -31 37z"/>
<path d="M7554 2733 c-38 -90 -43 -192 -9 -163 8 7 15 21 15 31 0 15 7 19 35
19 28 0 37 -5 45 -24 5 -13 14 -27 19 -31 18 -11 24 23 11 58 -20 49 -80 147
-91 147 -6 0 -17 -17 -25 -37z"/>
<path d="M7982 2754 c-15 -10 -22 -25 -22 -48 0 -43 16 -56 67 -56 31 0 43 -4
43 -15 0 -24 -34 -36 -56 -20 -27 20 -44 18 -44 -5 0 -29 44 -54 82 -46 44 9
58 24 58 62 0 46 -34 77 -77 69 -17 -3 -34 -1 -37 4 -10 15 22 34 48 27 29 -7
43 9 26 29 -16 20 -60 19 -88 -1z"/>
<path d="M7350 2401 c0 -64 4 -92 14 -100 21 -17 30 3 28 59 l-2 45 52 -58
c29 -31 59 -57 66 -57 8 0 12 22 12 78 0 95 -7 124 -29 120 -13 -3 -15 -14
-13 -58 l3 -55 -51 58 c-72 80 -80 77 -80 -32z"/>
<path d="M7577 2478 c-42 -33 -50 -126 -12 -163 53 -54 135 -15 135 65 0 46
-21 94 -45 104 -26 10 -60 7 -78 -6z"/>
<path d="M7457 2213 c-21 -37 -52 -178 -42 -193 10 -17 35 2 35 26 0 21 5 24
35 24 28 0 37 -5 50 -30 10 -19 20 -27 30 -24 20 8 19 11 -11 73 -50 104 -84
147 -97 124z"/>
<path d="M7745 2208 c-2 -7 -1 -53 3 -103 5 -70 10 -90 22 -90 10 0 16 12 18
38 2 20 7 37 11 37 4 0 22 -16 41 -35 33 -34 70 -47 70 -24 0 6 -11 24 -25 41
-18 21 -25 41 -25 72 0 29 -6 48 -18 59 -22 20 -91 23 -97 5z"/>
<path d="M8635 2065 c-50 -49 -23 -145 40 -145 63 0 89 92 40 144 -30 32 -49
33 -80 1z"/>
</g>
</svg>
